<svg preserveAspectRatio="none" width="100%" height="100%" overflow="visible" style="display: block;" viewBox="0 0 64 64" fill="none" xmlns="http://www.w3.org/2000/svg">
<g id="Frame" opacity="0.5">
<path id="Vector" fill-rule="evenodd" clip-rule="evenodd" d="M51.396 44.392C51.892 41.37 52 37.442 52 32C52 26.568 51.874 22.654 51.352 19.638C50.862 16.754 50.114 15.388 49.314 14.596C48.508 13.802 47.128 13.074 44.246 12.604C41.242 12.106 37.356 12 32 12C26.644 12 22.758 12.106 19.754 12.604C16.872 13.074 15.492 13.802 14.686 14.596C13.886 15.388 13.138 16.754 12.648 19.638C12.126 22.654 12 26.568 12 32C12 37.442 12.106 41.37 12.604 44.392C13.074 47.292 13.804 48.646 14.578 49.422C15.354 50.196 16.708 50.926 19.608 51.396C22.63 51.894 26.558 52 32 52C37.442 52 41.37 51.894 44.392 51.396C47.292 50.926 48.646 50.196 49.422 49.422C50.196 48.646 50.926 47.292 51.396 44.392ZM32 56C54 56 56 54 56 32C56 10 53.662 8 32 8C10.338 8 8 10 8 32C8 54 10 56 32 56Z" fill="var(--fill-0, white)"/>
<path id="Vector_2" fill-rule="evenodd" clip-rule="evenodd" d="M17.112 41.348C15.7 41.142 14.342 42.266 14.552 43.676C14.672 44.488 15.31 45.116 16.12 45.244C20.036 45.86 25.198 46 32 46C38.8 46 43.964 45.86 47.878 45.244C48.69 45.116 49.326 44.488 49.448 43.676C49.658 42.266 48.3 41.142 46.888 41.348C46.812 41.36 46.734 41.37 46.656 41.382H46.652C43.048 41.888 38.366 42 32 42C25.634 42 20.952 41.888 17.348 41.382H17.344C17.266 41.37 17.188 41.36 17.112 41.348Z" fill="var(--fill-0, white)"/>
<path id="Vector_3" fill-rule="evenodd" clip-rule="evenodd" d="M23.444 20.068C21.828 19.696 20.22 20.706 19.848 22.32C19.758 22.71 19.75 23.1 19.81 23.472C19.91 24.086 19.698 24.8 19.164 25.122C18.95 25.252 18.74 25.388 18.532 25.53C17.602 26.168 16.32 25.932 16.02 24.844C15.722 23.764 15.682 22.594 15.95 21.424C16.816 17.656 20.572 15.304 24.338 16.17C28.106 17.034 30.46 20.79 29.594 24.558C29.484 25.04 29.326 25.5 29.126 25.932C28.59 27.092 27.112 26.89 26.264 25.934C26.16 25.814 26.05 25.698 25.936 25.586C25.52 25.172 25.436 24.494 25.62 23.936C25.65 23.848 25.674 23.756 25.696 23.664C26.066 22.048 25.058 20.438 23.444 20.068ZM26.444 35.552C27.258 36.234 28.47 36.124 29.148 35.304C29.65 34.712 30.15 34.104 30.652 33.494C32.828 30.854 35.07 28.14 37.756 26.084C40.604 28.264 42.882 31.052 45.144 33.82L45.146 33.822C45.552 34.318 45.956 34.812 46.364 35.304C47.042 36.124 48.254 36.234 49.068 35.552C49.874 34.876 49.982 33.638 49.312 32.83C48.88 32.31 48.448 31.782 48.01 31.248L47.996 31.23C45.518 28.202 42.93 25.04 39.78 22.788C39.182 22.366 38.506 22 37.756 22C37.006 22 36.33 22.366 35.732 22.788C32.57 25.048 29.914 28.296 27.406 31.362C27 31.858 26.596 32.35 26.198 32.832C25.518 33.652 25.628 34.868 26.444 35.552ZM25.602 30.34C26.152 29.716 26.144 28.784 25.554 28.196C25.092 27.736 24.588 27.268 24.028 26.788C23.43 26.366 22.754 26 22.004 26C21.254 26 20.548 26.342 19.98 26.788C17.098 29.058 16 30.956 14.446 32.832C13.766 33.652 13.876 34.868 14.692 35.552C15.506 36.234 16.718 36.124 17.396 35.304C19 33 19.98 32 22.004 30.084C22.182 30.252 22.35 30.414 22.512 30.568C23.352 31.37 24.834 31.21 25.602 30.34Z" fill="var(--fill-0, white)"/>
</g>
</svg>
